<?xml version="1.0" encoding="UTF-8"?>
<svg id="Ebene_1" data-name="Ebene 1" xmlns="http://www.w3.org/2000/svg" viewBox="0 0 708.66 260.54">
  <defs>
    <style>
      .cls-1 {
        fill: #110f11;
      }

      .cls-2 {
        fill: #0200e7;
      }

      .cls-3 {
        fill: #ff693f;
      }

      .cls-4 {
        fill: #3fbea7;
      }
    </style>
  </defs>
  <g>
    <path class="cls-1" d="M293.71,117.24c-4.91,0-9.46-1.21-13.65-3.62-4.19-2.42-7.55-5.9-10.09-10.45-2.54-4.55-3.81-10.04-3.81-16.49v-1.81c0-6.36,1.25-11.84,3.75-16.43,2.49-4.59,5.84-8.09,10.03-10.51,4.19-2.42,8.78-3.62,13.77-3.62,3.87,0,7.11.48,9.72,1.45,2.62.97,4.77,2.19,6.46,3.68,1.69,1.49,2.98,3.04,3.87,4.65h1.93V30.99h12.44v84.56h-12.2v-8.46h-1.93c-1.53,2.58-3.85,4.91-6.95,7.01-3.1,2.09-7.55,3.14-13.35,3.14ZM297.22,106.37c5.39,0,9.85-1.73,13.35-5.2,3.5-3.46,5.26-8.41,5.26-14.86v-1.09c0-6.36-1.73-11.27-5.2-14.74-3.46-3.46-7.93-5.2-13.41-5.2s-9.72,1.73-13.23,5.2c-3.5,3.46-5.25,8.38-5.25,14.74v1.09c0,6.44,1.75,11.4,5.25,14.86,3.5,3.46,7.91,5.2,13.23,5.2Z"/>
    <path class="cls-1" d="M358.94,117.24c-4.27,0-8.07-.73-11.41-2.17-3.34-1.45-6-3.58-7.97-6.4-1.97-2.82-2.96-6.24-2.96-10.27s.99-7.51,2.96-10.21c1.97-2.7,4.67-4.73,8.09-6.1s7.31-2.05,11.66-2.05h18.12v-3.86c0-3.46-1.05-6.24-3.14-8.34-2.1-2.09-5.32-3.14-9.67-3.14s-7.53,1.01-9.78,3.02c-2.25,2.01-3.74,4.63-4.47,7.85l-11.6-3.74c.97-3.22,2.52-6.14,4.65-8.76,2.13-2.62,4.97-4.73,8.52-6.34,3.54-1.61,7.81-2.42,12.8-2.42,7.73,0,13.81,1.97,18.24,5.92,4.43,3.95,6.64,9.54,6.64,16.79v24.52c0,2.42,1.13,3.62,3.38,3.62h5.07v10.39h-9.3c-2.82,0-5.12-.73-6.89-2.17s-2.66-3.42-2.66-5.92v-.36h-1.81c-.65,1.21-1.61,2.62-2.9,4.23-1.29,1.61-3.18,3-5.68,4.17s-5.8,1.75-9.9,1.75ZM360.76,106.97c4.99,0,9.02-1.43,12.08-4.29,3.06-2.86,4.59-6.78,4.59-11.78v-1.21h-17.39c-3.3,0-5.96.71-7.97,2.11-2.01,1.41-3.02,3.49-3.02,6.22s1.05,4.91,3.14,6.52,4.95,2.42,8.58,2.42Z"/>
    <path class="cls-1" d="M422.36,115.55c-3.62,0-6.5-1.09-8.64-3.26-2.13-2.17-3.2-5.08-3.2-8.7v-37.08h-16.43v-10.51h16.43v-19.69h12.44v19.69h17.76v10.51h-17.76v34.91c0,2.42,1.13,3.62,3.38,3.62h12.44v10.51h-16.43Z"/>
    <path class="cls-1" d="M467.66,117.24c-4.27,0-8.07-.73-11.41-2.17-3.34-1.45-6-3.58-7.97-6.4-1.97-2.82-2.96-6.24-2.96-10.27s.98-7.51,2.96-10.21c1.97-2.7,4.67-4.73,8.09-6.1s7.31-2.05,11.66-2.05h18.12v-3.86c0-3.46-1.05-6.24-3.14-8.34-2.1-2.09-5.32-3.14-9.67-3.14s-7.53,1.01-9.79,3.02c-2.25,2.01-3.74,4.63-4.47,7.85l-11.6-3.74c.97-3.22,2.52-6.14,4.65-8.76,2.13-2.62,4.97-4.73,8.52-6.34,3.54-1.61,7.81-2.42,12.8-2.42,7.73,0,13.81,1.97,18.24,5.92,4.43,3.95,6.64,9.54,6.64,16.79v24.52c0,2.42,1.13,3.62,3.38,3.62h5.07v10.39h-9.3c-2.82,0-5.12-.73-6.89-2.17s-2.66-3.42-2.66-5.92v-.36h-1.81c-.65,1.21-1.61,2.62-2.9,4.23-1.29,1.61-3.18,3-5.68,4.17s-5.8,1.75-9.91,1.75ZM469.48,106.97c4.99,0,9.02-1.43,12.08-4.29,3.06-2.86,4.59-6.78,4.59-11.78v-1.21h-17.4c-3.3,0-5.96.71-7.97,2.11-2.01,1.41-3.02,3.49-3.02,6.22s1.05,4.91,3.14,6.52,4.95,2.42,8.58,2.42Z"/>
    <path class="cls-1" d="M293.47,211.78c-7.57,0-13.85-1.69-18.85-5.08-4.99-3.38-8.05-8.49-9.18-15.34l11.6-2.78c.64,3.3,1.73,5.92,3.26,7.85,1.53,1.93,3.44,3.3,5.74,4.11,2.29.81,4.77,1.21,7.43,1.21,3.94,0,6.99-.76,9.12-2.29,2.13-1.53,3.2-3.5,3.2-5.92s-1.01-4.19-3.02-5.32c-2.01-1.13-4.99-2.05-8.94-2.78l-4.11-.72c-4.03-.73-7.69-1.77-10.99-3.14-3.3-1.37-5.92-3.26-7.85-5.68-1.93-2.42-2.9-5.52-2.9-9.3,0-5.64,2.09-10.01,6.28-13.11,4.19-3.1,9.74-4.65,16.67-4.65s12.18,1.51,16.49,4.53c4.31,3.02,7.11,7.11,8.4,12.26l-11.6,3.26c-.72-3.62-2.26-6.18-4.59-7.67-2.34-1.49-5.24-2.23-8.7-2.23s-6.04.63-7.97,1.87c-1.93,1.25-2.9,3-2.9,5.25,0,2.42.95,4.19,2.84,5.32,1.89,1.13,4.45,1.97,7.67,2.54l4.23.72c4.27.73,8.17,1.73,11.72,3.02,3.54,1.29,6.34,3.14,8.4,5.56,2.05,2.42,3.08,5.64,3.08,9.67,0,5.96-2.22,10.59-6.64,13.89-4.43,3.3-10.39,4.95-17.88,4.95Z"/>
    <path class="cls-1" d="M333.34,234.25v-10.87h33.22c2.25,0,3.38-1.21,3.38-3.63v-18.36h-1.93c-.73,1.61-1.83,3.16-3.32,4.65-1.49,1.49-3.48,2.72-5.98,3.68-2.5.97-5.64,1.45-9.42,1.45-4.51,0-8.54-1.01-12.08-3.02-3.54-2.01-6.32-4.87-8.34-8.58-2.01-3.7-3.02-8.09-3.02-13.17v-35.88h12.44v34.91c0,5.16,1.29,8.96,3.87,11.42s6.16,3.68,10.75,3.68c5.07,0,9.16-1.69,12.26-5.07,3.1-3.38,4.65-8.29,4.65-14.74v-30.2h12.44v71.75c0,3.62-1.07,6.52-3.2,8.7-2.13,2.17-5.06,3.26-8.76,3.26h-36.96Z"/>
    <path class="cls-1" d="M418.98,211.78c-7.57,0-13.85-1.69-18.85-5.08-4.99-3.38-8.05-8.49-9.18-15.34l11.6-2.78c.64,3.3,1.73,5.92,3.26,7.85,1.53,1.93,3.44,3.3,5.74,4.11,2.29.81,4.77,1.21,7.43,1.21,3.94,0,6.99-.76,9.12-2.29,2.13-1.53,3.2-3.5,3.2-5.92s-1.01-4.19-3.02-5.32c-2.01-1.13-4.99-2.05-8.94-2.78l-4.11-.72c-4.03-.73-7.69-1.77-10.99-3.14-3.3-1.37-5.92-3.26-7.85-5.68-1.93-2.42-2.9-5.52-2.9-9.3,0-5.64,2.09-10.01,6.28-13.11,4.19-3.1,9.74-4.65,16.67-4.65s12.18,1.51,16.49,4.53c4.31,3.02,7.11,7.11,8.39,12.26l-11.6,3.26c-.72-3.62-2.25-6.18-4.59-7.67-2.34-1.49-5.24-2.23-8.7-2.23s-6.04.63-7.97,1.87c-1.93,1.25-2.9,3-2.9,5.25,0,2.42.95,4.19,2.84,5.32,1.89,1.13,4.45,1.97,7.67,2.54l4.23.72c4.27.73,8.17,1.73,11.72,3.02,3.54,1.29,6.34,3.14,8.39,5.56,2.05,2.42,3.08,5.64,3.08,9.67,0,5.96-2.21,10.59-6.64,13.89s-10.39,4.95-17.88,4.95Z"/>
    <path class="cls-1" d="M472.98,210.09c-3.62,0-6.5-1.09-8.64-3.26-2.13-2.17-3.2-5.08-3.2-8.7v-37.08h-16.43v-10.51h16.43v-19.69h12.44v19.69h17.76v10.51h-17.76v34.91c0,2.42,1.13,3.62,3.38,3.62h12.44v10.51h-16.43Z"/>
    <path class="cls-1" d="M525.05,211.78c-6.04,0-11.31-1.27-15.82-3.81-4.51-2.54-8.03-6.12-10.57-10.75-2.54-4.63-3.8-10-3.8-16.13v-1.45c0-6.2,1.25-11.62,3.74-16.25,2.5-4.63,5.98-8.21,10.45-10.75,4.47-2.54,9.65-3.8,15.52-3.8s10.73,1.27,15.04,3.8c4.31,2.54,7.67,6.06,10.09,10.57,2.42,4.51,3.62,9.79,3.62,15.82v4.71h-45.78c.16,5.24,1.91,9.4,5.26,12.5,3.34,3.1,7.51,4.65,12.5,4.65,4.67,0,8.19-1.05,10.57-3.14,2.38-2.09,4.21-4.51,5.5-7.25l10.27,5.31c-1.13,2.26-2.76,4.63-4.89,7.13-2.13,2.5-4.93,4.59-8.39,6.28-3.46,1.69-7.9,2.54-13.29,2.54ZM507.65,174.21h32.98c-.32-4.51-1.93-8.03-4.83-10.57-2.9-2.54-6.69-3.81-11.35-3.81s-8.48,1.27-11.42,3.81c-2.94,2.54-4.73,6.06-5.38,10.57Z"/>
    <path class="cls-1" d="M562.25,210.09v-59.55h12.2v7.01h1.93c1.13-2.09,2.94-3.94,5.44-5.56,2.5-1.61,5.88-2.42,10.15-2.42s7.99.91,10.69,2.72,4.73,4.13,6.1,6.95h1.93c1.37-2.74,3.36-5.03,5.98-6.88,2.62-1.85,6.34-2.78,11.17-2.78,3.87,0,7.29.78,10.27,2.36,2.98,1.57,5.36,3.91,7.13,7.01,1.77,3.1,2.66,6.95,2.66,11.54v39.62h-12.44v-38.66c0-3.62-.99-6.42-2.96-8.4-1.97-1.97-4.77-2.96-8.39-2.96-3.87,0-6.97,1.25-9.3,3.74-2.34,2.5-3.5,6.08-3.5,10.75v35.52h-12.44v-38.66c0-3.62-.99-6.42-2.96-8.4-1.97-1.97-4.77-2.96-8.4-2.96-3.86,0-6.97,1.25-9.3,3.74-2.34,2.5-3.5,6.08-3.5,10.75v35.52h-12.44Z"/>
    <path class="cls-1" d="M684.14,211.78c-7.57,0-13.85-1.69-18.85-5.08-4.99-3.38-8.05-8.49-9.18-15.34l11.6-2.78c.64,3.3,1.73,5.92,3.26,7.85,1.53,1.93,3.44,3.3,5.74,4.11,2.29.81,4.77,1.21,7.43,1.21,3.94,0,6.99-.76,9.12-2.29,2.13-1.53,3.2-3.5,3.2-5.92s-1.01-4.19-3.02-5.32c-2.01-1.13-4.99-2.05-8.94-2.78l-4.11-.72c-4.03-.73-7.69-1.77-10.99-3.14-3.3-1.37-5.92-3.26-7.85-5.68-1.93-2.42-2.9-5.52-2.9-9.3,0-5.64,2.09-10.01,6.28-13.11,4.19-3.1,9.74-4.65,16.67-4.65s12.18,1.51,16.49,4.53c4.31,3.02,7.11,7.11,8.39,12.26l-11.6,3.26c-.72-3.62-2.25-6.18-4.59-7.67-2.34-1.49-5.24-2.23-8.7-2.23s-6.04.63-7.97,1.87c-1.93,1.25-2.9,3-2.9,5.25,0,2.42.95,4.19,2.84,5.32,1.89,1.13,4.45,1.97,7.67,2.54l4.23.72c4.27.73,8.17,1.73,11.72,3.02,3.54,1.29,6.34,3.14,8.39,5.56,2.05,2.42,3.08,5.64,3.08,9.67,0,5.96-2.21,10.59-6.64,13.89s-10.39,4.95-17.88,4.95Z"/>
  </g>
  <g>
    <polygon class="cls-2" points="195.4 0 195.4 162.83 150.31 211.68 150.31 0 195.4 0"/>
    <polygon class="cls-4" points="150.31 211.69 105.22 260.54 0 260.54 0 211.69 150.31 211.69"/>
    <polygon class="cls-3" points="135.28 65.14 135.28 113.99 45.1 113.99 45.1 195.4 0 195.4 0 146.56 90.18 65.14 135.28 65.14"/>
  </g>
</svg>